<svg viewBox="0 0 256 256" xmlns="http://www.w3.org/2000/svg" xml:space="preserve" style="fill-rule:evenodd;clip-rule:evenodd;stroke-miterlimit:8">
  <desc>Traced by Dogo314</desc>
  <g transform="translate(-276 -306)">
    <path style="fill:none" d="M276 306h256v256H276z"/>
    <clipPath id="a">
      <path d="M276 306h256v256H276z"/>
    </clipPath>
    <g clip-path="url(#a)">
      <path d="M276 3412v-256h480v256zm465-248H291v240h450zm-200.625 28 2.026 11.243c.173.966 1.212 1.827 2.786 2.312s3.492.533 5.146.131l19.27-4.686-17.244 6.557c-1.48.563-2.359 1.473-2.359 2.443s.879 1.88 2.359 2.443l17.244 6.557-19.27-4.686c-1.654-.402-3.571-.353-5.146.131-1.574.485-2.613 1.346-2.786 2.312L540.375 3228l-2.026-11.243c-.173-.966-1.212-1.827-2.786-2.312s-3.492-.533-5.146-.131l-19.27 4.686 17.244-6.557c1.48-.563 2.359-1.473 2.359-2.443s-.879-1.88-2.359-2.443L511.147 3201l19.27 4.686c1.654.402 3.571.353 5.146-.131 1.574-.485 2.613-1.346 2.786-2.312zm-206.25 71v-69c0-2.122 1.58-4.157 4.393-5.657s6.629-2.343 10.607-2.343h58.125v22h-61.875v28H381v27h-13.125v24.5c0 1.459-1.086 2.858-3.02 3.889-1.934 1.032-4.557 1.611-7.293 1.611-5.695 0-10.312-2.462-10.312-5.5V3263zm113.428-87 1.624 9.012c.14.774.972 1.464 2.234 1.853s2.799.428 4.125.105l15.446-3.756-13.822 5.256c-1.187.451-1.892 1.181-1.892 1.958 0 .778.705 1.507 1.892 1.958l13.822 5.256-15.446-3.756c-1.326-.322-2.863-.283-4.125.105-1.262.389-2.094 1.079-2.234 1.853l-1.624 9.012-1.623-9.012c-.14-.774-.972-1.464-2.234-1.853-1.262-.388-2.799-.427-4.125-.105l-15.446 3.756 13.822-5.256c1.187-.451 1.892-1.18 1.892-1.958 0-.777-.705-1.507-1.892-1.958l-13.822-5.256 15.446 3.756c1.326.323 2.863.284 4.125-.105s2.094-1.079 2.234-1.853zm4.697 37v18h-97.5v-18z" style="fill:#dc1a1a" transform="matrix(.53333 0 0 1 128.8 -2850)"/>
      <path d="m484 3322.5-31.25 54.127h-62.5L359 3322.5l31.25-54.127h62.5z" style="fill:#fff;stroke:#fff;stroke-width:.9px" transform="translate(-35.208 -3224.431)scale(1.112)"/>
    </g>
  </g>
</svg>
